# Blender 4.3.2
# www.blender.org
mtllib carpet.mtl
o Cube
v 13.149195 4.367221 3.906289
v 13.149195 4.382798 3.906289
v 11.585682 4.367221 -0.642468
v 11.585682 4.382798 -0.642468
v 20.739933 4.367221 1.297178
v 20.739933 4.382798 1.297178
v 19.176420 4.367221 -3.251579
v 19.176420 4.382798 -3.251579
vn -0.9457 -0.0000 0.3251
vn -0.3251 -0.0000 -0.9457
vn 0.9457 -0.0000 -0.3251
vn 0.3251 -0.0000 0.9457
vn -0.0000 -1.0000 -0.0000
vn -0.0000 1.0000 -0.0000
vt 0.606453 0.500000
vt 0.605847 0.500000
vt 0.605847 0.312647
vt 0.606453 0.312647
vt 0.605847 0.000003
vt 0.606453 0.000002
vt 0.606453 0.999998
vt 0.605847 0.999998
vt 0.605847 0.812645
vt 0.606453 0.812645
vt 0.616485 0.997129
vt 0.616485 0.361323
vt 0.997492 0.361323
vt 0.997492 0.997129
vt 0.000077 0.999923
vt 0.000077 0.000077
vt 0.599236 0.000077
vt 0.599236 0.999923
s 0
usemtl Carpet
f 1/1/1 2/2/1 4/3/1 3/4/1
f 3/4/2 4/3/2 8/5/2 7/6/2
f 7/7/3 8/8/3 6/9/3 5/10/3
f 5/10/4 6/9/4 2/2/4 1/1/4
f 3/11/5 7/12/5 5/13/5 1/14/5
f 8/15/6 4/16/6 2/17/6 6/18/6
