# Blender 4.3.2
# www.blender.org
mtllib u_stairs.mtl
o Cube.001
v 14.000000 1.000000 -10.000000
v 14.000000 1.000000 -12.000000
v 14.000000 1.300000 -10.000000
v 14.000000 1.300000 -12.000000
v 14.500000 1.000000 -10.000000
v 14.500000 1.000000 -12.000000
v 14.500000 1.300000 -10.000000
v 14.500000 1.300000 -12.000000
v 14.500000 1.600000 -10.000000
v 14.500000 1.600000 -12.000000
v 15.000000 1.600000 -10.000000
v 15.000000 1.600000 -12.000000
v 15.000000 1.900000 -10.000000
v 15.000000 1.900000 -12.000000
v 15.500001 1.900000 -10.000000
v 15.500001 1.900000 -12.000000
v 15.500001 2.200000 -10.000000
v 15.500001 2.200000 -12.000000
v 16.000002 1.900000 -12.000000
v 16.000002 2.200000 -10.000000
v 16.000002 2.200000 -12.000000
v 16.000000 2.500000 -10.000000
v 16.000000 2.500000 -12.000000
v 16.500000 2.200000 -12.000000
v 16.500000 2.500000 -10.000000
v 16.500000 2.500000 -12.000000
v 16.500000 2.800000 -10.000000
v 16.500000 2.800000 -12.000000
v 17.000002 2.500000 -12.000000
v 17.000002 2.800000 -10.000000
v 17.000000 2.800000 -12.000000
v 17.000000 3.100000 -10.000000
v 17.000000 3.100000 -12.000000
v 17.500002 2.800000 -12.000000
v 17.500002 3.100000 -12.000000
v 17.500002 3.100000 -10.000000
v 17.500002 3.400000 -10.000000
v 17.500002 3.400000 -12.000000
v 18.000002 3.400000 -10.000000
v 18.000002 3.400000 -12.000000
v 18.000000 3.400000 -14.000000
v 18.000000 3.700000 -10.000000
v 18.000000 3.700000 -14.000000
v 19.999998 3.700000 -10.000000
v 19.999998 3.700000 -14.000000
v 17.500002 3.700000 -12.000000
v 17.500002 4.000000 -14.000000
v 18.000002 3.700000 -14.000000
v 18.000002 4.000000 -12.000000
v 18.000002 4.000000 -14.000000
v 17.500002 4.000000 -12.000000
v 17.500002 4.300000 -12.000000
v 17.500002 4.300000 -14.000000
v 17.000002 4.300000 -12.000000
v 17.000002 4.300000 -14.000000
v 17.000002 4.600000 -12.000000
v 17.000002 4.600000 -14.000000
v 16.000000 4.900001 -14.000000
v 16.500000 4.600000 -12.000000
v 16.500000 4.600000 -14.000000
v 16.500000 4.900001 -12.000000
v 16.500000 4.900001 -14.000000
v 16.000000 4.900001 -12.000000
v 16.000000 5.200001 -12.000000
v 16.000000 5.200001 -14.000000
v 15.000000 5.200001 -12.000000
v 15.000000 5.500001 -12.000000
v 15.000000 5.500001 -14.000000
v 15.500001 5.200001 -12.000000
v 15.500001 5.200001 -14.000000
v 15.500001 5.500001 -12.000000
v 15.500001 5.500001 -14.000000
v 14.499999 5.800001 -12.000000
v 15.000000 5.800001 -12.000000
v 15.000000 5.800001 -14.000000
v 13.999998 5.800001 -12.000000
v 13.999998 5.800001 -14.000000
v 13.999998 6.100001 -12.000000
v 13.999998 6.100001 -14.000000
v 14.499999 5.800001 -14.000000
v 14.499999 6.100001 -12.000000
v 14.499999 6.100001 -14.000000
v 15.000001 1.300000 -10.000000
v 15.500002 1.600000 -10.000000
v 16.000002 1.900000 -10.000000
v 16.500000 2.200000 -10.000000
v 17.000002 2.500000 -10.000000
v 17.500002 2.800000 -10.000000
v 15.000001 1.300000 -12.000000
v 15.500002 1.600000 -12.000000
v 18.000000 3.700000 -12.000000
v 19.999998 3.700000 -12.000000
v 17.000000 4.000000 -12.000000
v 16.499998 4.300001 -12.000000
v 15.999999 4.600001 -12.000000
v 15.500000 4.900001 -12.000000
v 14.499998 5.500001 -12.000000
v 17.500000 3.700000 -14.000000
v 17.000000 4.000000 -14.000000
v 16.499998 4.300001 -14.000000
v 15.999999 4.600001 -14.000000
v 15.500000 4.900001 -14.000000
v 14.999999 5.200001 -14.000000
v 14.499998 5.500001 -14.000000
v 18.000000 3.100000 -12.000000
v 18.000000 3.100000 -14.000000
v 19.999998 3.100000 -12.000000
v 19.999998 3.100000 -14.000000
v 19.999998 3.100000 -10.000000
v 18.000000 3.100000 -10.000000
vn -0.0000 1.0000 -0.0000
vn -0.0000 -0.0000 -1.0000
vn -1.0000 -0.0000 -0.0000
vn -0.0000 -0.0000 1.0000
vn 1.0000 -0.0000 -0.0000
vn 0.5145 -0.8575 -0.0000
vn -0.5145 -0.8575 -0.0000
vn -0.0000 -1.0000 -0.0000
vt 0.797818 0.812395
vt 0.797818 0.764688
vt 0.988646 0.764688
vt 0.988646 0.812395
vt 0.860587 0.923432
vt 0.803707 0.889303
vt 0.824184 0.855176
vt 0.881064 0.889303
vt 0.797818 0.841019
vt 0.988646 0.841019
vt 0.797818 0.736064
vt 0.797818 0.688356
vt 0.988646 0.688356
vt 0.988646 0.736064
vt 0.783231 0.923432
vt 0.726350 0.889303
vt 0.746827 0.855176
vt 0.797818 0.659732
vt 0.797818 0.612025
vt 0.988646 0.612025
vt 0.988646 0.659732
vt 0.705874 0.923431
vt 0.648994 0.889303
vt 0.669471 0.855176
vt 0.797818 0.583401
vt 0.797818 0.535694
vt 0.988646 0.535694
vt 0.988646 0.583401
vt 0.628517 0.923431
vt 0.571637 0.889303
vt 0.592114 0.855176
vt 0.797818 0.507069
vt 0.797818 0.459363
vt 0.988646 0.459362
vt 0.988646 0.507069
vt 0.551161 0.923431
vt 0.494280 0.889303
vt 0.514757 0.855176
vt 0.797817 0.430738
vt 0.797818 0.383031
vt 0.988646 0.383031
vt 0.988646 0.430738
vt 0.473804 0.923432
vt 0.416924 0.889303
vt 0.437400 0.855176
vt 0.797818 0.354407
vt 0.797818 0.306699
vt 0.988646 0.306699
vt 0.988646 0.354407
vt 0.396447 0.923432
vt 0.339567 0.889303
vt 0.360044 0.855176
vt 0.797818 0.278075
vt 0.797818 0.230368
vt 0.988646 0.230368
vt 0.988646 0.278075
vt 0.223703 0.462894
vt 0.013483 0.462895
vt 0.013483 0.431362
vt 0.223702 0.431362
vt 0.778226 0.525932
vt 0.458565 0.525932
vt 0.458565 0.206270
vt 0.778226 0.206270
vt 0.824184 0.928480
vt 0.881064 0.962607
vt 0.860587 0.996736
vt 0.803707 0.962607
vt 0.016075 0.007567
vt 0.044699 0.007567
vt 0.044699 0.198396
vt 0.016075 0.198396
vt 0.092406 0.198396
vt 0.092406 0.007567
vt 0.746827 0.928479
vt 0.783231 0.996736
vt 0.726351 0.962607
vt 0.121030 0.007567
vt 0.121030 0.198396
vt 0.168737 0.198396
vt 0.168737 0.007567
vt 0.669471 0.928479
vt 0.705874 0.996736
vt 0.648994 0.962607
vt 0.197362 0.007567
vt 0.197361 0.198396
vt 0.245069 0.198396
vt 0.245069 0.007567
vt 0.592114 0.928479
vt 0.628517 0.996735
vt 0.571637 0.962607
vt 0.273693 0.007567
vt 0.273693 0.198396
vt 0.321400 0.198396
vt 0.321400 0.007567
vt 0.514757 0.928480
vt 0.551161 0.996735
vt 0.494281 0.962607
vt 0.350024 0.007567
vt 0.350024 0.198396
vt 0.397731 0.198396
vt 0.397731 0.007567
vt 0.437401 0.928480
vt 0.473804 0.996736
vt 0.416924 0.962607
vt 0.426356 0.007567
vt 0.426356 0.198396
vt 0.474063 0.198396
vt 0.474063 0.007567
vt 0.360044 0.928480
vt 0.396447 0.996735
vt 0.339567 0.962607
vt 0.502687 0.007567
vt 0.502687 0.198396
vt 0.550394 0.198396
vt 0.550394 0.007567
vt 0.282687 0.928480
vt 0.319090 0.996735
vt 0.262210 0.962607
vt 0.579019 0.007567
vt 0.579018 0.198396
vt 0.626725 0.198396
vt 0.626726 0.007567
vt 0.223702 0.953206
vt 0.223703 0.984739
vt 0.013483 0.984739
vt 0.013483 0.953206
vt 0.234976 0.481847
vt 0.234976 0.420558
vt 0.445195 0.420558
vt 0.445195 0.481847
vt 0.234976 0.849580
vt 0.234976 0.788291
vt 0.445195 0.788291
vt 0.445195 0.849580
vt 0.234976 0.727002
vt 0.445195 0.727002
vt 0.234976 0.665713
vt 0.445195 0.665713
vt 0.234976 0.604425
vt 0.445195 0.604425
vt 0.234976 0.543136
vt 0.445195 0.543136
vt 0.282688 0.855176
vt 0.797818 0.201744
vt 0.988646 0.201744
vt 0.778226 0.845593
vt 0.458565 0.845593
vt 0.223702 0.524184
vt 0.013483 0.524184
vt 0.013483 0.891917
vt 0.223703 0.891917
vt 0.013483 0.830628
vt 0.223702 0.830628
vt 0.013483 0.769339
vt 0.223702 0.769339
vt 0.013483 0.708050
vt 0.223702 0.708050
vt 0.013483 0.646762
vt 0.223702 0.646762
vt 0.013483 0.585472
vt 0.223702 0.585473
vt 0.901541 0.928480
vt 0.262210 0.889303
vt 0.319091 0.923431
vt 0.234976 0.210339
vt 0.445195 0.210339
vt 0.024757 0.420558
vt 0.024757 0.210339
s 0
f 3/1/1 7/2/1 8/3/1 4/4/1
f 4/5/2 8/6/2 6/7/2 2/8/2
f 1/9/3 3/1/3 4/4/3 2/10/3
f 9/11/1 11/12/1 12/13/1 10/14/1
f 10/15/2 12/16/2 89/17/2 8/6/2
f 7/2/3 9/11/3 10/14/3 8/3/3
f 13/18/1 15/19/1 16/20/1 14/21/1
f 14/22/2 16/23/2 90/24/2 12/16/2
f 11/12/3 13/18/3 14/21/3 12/13/3
f 17/25/1 20/26/1 21/27/1 18/28/1
f 18/29/2 21/30/2 19/31/2 16/23/2
f 15/19/3 17/25/3 18/28/3 16/20/3
f 22/32/1 25/33/1 26/34/1 23/35/1
f 23/36/2 26/37/2 24/38/2 21/30/2
f 20/26/3 22/32/3 23/35/3 21/27/3
f 27/39/1 30/40/1 31/41/1 28/42/1
f 28/43/2 31/44/2 29/45/2 26/37/2
f 25/33/3 27/39/3 28/42/3 26/34/3
f 32/46/1 36/47/1 35/48/1 33/49/1
f 33/50/2 35/51/2 34/52/2 31/44/2
f 30/40/3 32/46/3 33/49/3 31/41/3
f 37/53/1 39/54/1 40/55/1 38/56/1
f 40/57/3 41/58/3 106/59/3 105/60/3
f 36/47/3 37/53/3 38/56/3 35/48/3
f 91/61/1 92/62/1 45/63/1 43/64/1
f 46/65/4 91/66/4 49/67/4 51/68/4
f 48/69/5 50/70/5 49/71/5 91/72/5
f 51/73/1 49/71/1 50/70/1 47/74/1
f 93/75/4 51/68/4 52/76/4 54/77/4
f 47/74/5 53/78/5 52/79/5 51/73/5
f 54/80/1 52/79/1 53/78/1 55/81/1
f 94/82/4 54/77/4 56/83/4 59/84/4
f 55/81/5 57/85/5 56/86/5 54/80/5
f 59/87/1 56/86/1 57/85/1 60/88/1
f 95/89/4 59/84/4 61/90/4 63/91/4
f 60/88/5 62/92/5 61/93/5 59/87/5
f 63/94/1 61/93/1 62/92/1 58/95/1
f 96/96/4 63/91/4 64/97/4 69/98/4
f 58/95/5 65/99/5 64/100/5 63/94/5
f 69/101/1 64/100/1 65/99/1 70/102/1
f 66/103/4 69/98/4 71/104/4 67/105/4
f 70/102/5 72/106/5 71/107/5 69/101/5
f 67/108/1 71/107/1 72/106/1 68/109/1
f 97/110/4 67/105/4 74/111/4 73/112/4
f 68/109/5 75/113/5 74/114/5 67/108/5
f 73/115/1 74/114/1 75/113/1 80/116/1
f 76/117/4 73/112/4 81/118/4 78/119/4
f 80/116/5 82/120/5 81/121/5 73/115/5
f 78/122/1 81/121/1 82/120/1 79/123/1
f 76/124/3 78/125/3 79/126/3 77/127/3
f 34/128/6 105/129/6 110/130/6 88/131/6
f 6/132/6 89/133/6 83/134/6 5/135/6
f 89/133/6 90/136/6 84/137/6 83/134/6
f 90/136/6 19/138/6 85/139/6 84/137/6
f 19/138/6 24/140/6 86/141/6 85/139/6
f 24/140/6 29/142/6 87/143/6 86/141/6
f 29/142/6 34/128/6 88/131/6 87/143/6
f 35/51/2 105/144/2 34/52/2
f 12/16/2 90/24/2 89/17/2
f 8/6/2 89/17/2 6/7/2
f 16/23/2 19/31/2 90/24/2
f 24/38/2 19/31/2 21/30/2
f 29/45/2 24/38/2 26/37/2
f 34/52/2 29/45/2 31/44/2
f 39/54/3 42/145/3 91/146/3 40/55/3
f 42/147/1 44/148/1 92/62/1 91/61/1
f 46/149/7 98/150/7 41/58/7 40/57/7
f 76/124/7 77/127/7 104/151/7 97/152/7
f 97/152/7 104/151/7 103/153/7 66/154/7
f 66/154/7 103/153/7 102/155/7 96/156/7
f 96/156/7 102/155/7 101/157/7 95/158/7
f 95/158/7 101/157/7 100/159/7 94/160/7
f 94/160/7 100/159/7 99/161/7 93/162/7
f 93/162/7 99/161/7 98/150/7 46/149/7
f 76/117/4 97/110/4 73/112/4
f 97/110/4 66/103/4 67/105/4
f 66/103/4 96/96/4 69/98/4
f 96/96/4 95/89/4 63/91/4
f 95/89/4 94/82/4 59/84/4
f 94/82/4 93/75/4 54/77/4
f 93/75/4 46/65/4 51/68/4
f 46/65/4 40/163/4 91/66/4
f 40/164/2 105/144/2 35/51/2 38/165/2
f 105/129/8 107/166/8 109/167/8 110/130/8
f 106/168/8 108/169/8 107/166/8 105/129/8
